<svg xmlns="http://www.w3.org/2000/svg" width="111.204" height="51.199" viewBox="0.01 0 111.204 51.199" class="logo-svg"><path fill="#0079C1" d="M56.624 31.087l4.064-13.368h-4.003v-2.235h7.728v2.228l-4.062 13.327h4.269v2.3h-7.996zM49.92 26.629l.597-8.931h.198l.595 8.931h-1.39zm-3.851 6.71h3.404l.322-4.746h1.64l.322 4.746h3.404l-1.815-17.856h-5.465l-1.812 17.856z"></path><g fill="#0079C1"><path d="M70.056 25.304V17.7h.911c.375 0 .646.331.646.887v5.825c0 .563-.271.892-.646.892h-.911zm-3.479 8.035h3.479V27.27h1.985c2.435 0 2.82-1.94 2.82-3.19v-5.405c0-1.252-.386-3.191-2.82-3.191h-5.465v17.855zM85.736 33.339l-1.68-6.583c.879-.663 1.06-1.828 1.06-2.68v-5.401c0-1.254-.387-3.191-2.824-3.191h-5.463v17.855h3.479V27.27h.573l1.134 6.069h3.721zm-5.428-15.64h.914c.377 0 .647.33.647.887v5.825c0 .563-.271.892-.647.892h-.914v-7.604z"></path></g><path fill="#0079C1" d="M106.682 15.483h4.522V33.34h-3.481V22.141h-.122L105.81 33.34h-2.778l-1.789-11.199h-.123V33.34h-3.48V15.483h4.519l2.258 12.55z"></path><g fill="#0079C1"><path d="M92.847 15.483h-2.88c-2.438 0-2.581 1.939-2.581 3.189v11.475c0 1.252.144 3.192 2.581 3.192h2.88c2.434 0 2.581-1.94 2.581-3.192V18.673c0-1.251-.148-3.19-2.581-3.19m-1.44 15.649c-.426 0-.77-.317-.77-.708l.002-.027V18.374l.004-.049c.04-.355.368-.634.766-.634s.725.279.766.634l.004.049V30.423c-.002.391-.346.709-.772.709M40.909 21.156h3.253v-2.483c0-1.251-.149-3.189-2.583-3.189h-2.882c-2.436 0-2.581 1.939-2.581 3.189v11.474c0 1.252.146 3.193 2.581 3.193h2.882c2.434 0 2.583-1.941 2.583-3.193v-5.611h-4.163v2.013h.91v3.875c0 .39-.344.708-.768.708-.426 0-.77-.318-.77-.708V18.374l.004-.049c.04-.355.368-.633.766-.633.397 0 .723.278.765.633l.004.049v.055l-.001 2.727zM111.204 39.292H36.119v11.907h75.084V39.292zm-66.957 9.696h-1.835l-1.637-4.729h-.011c.087.823.319 2.058.319 2.89v1.84h-1.811v-7.768h1.833L42.72 46.1h.011c-.055-.867-.297-2.086-.297-2.942v-1.937h1.813v7.767zm21.434-6.299h-2.515v1.526h2.25v1.472h-2.25v1.828h2.515v1.473h-4.413V41.22h4.413v1.469zm21.161 0h-2.516v1.526h2.25v1.472h-2.25v3.299h-1.9V41.22h4.416v1.469zm21.209 0h-1.395v6.299h-1.748v-6.299h-1.492V41.22h4.635v1.469zM29.034 9.237C27.94 4.489 25.19.632 24.813 0c-.599.888-2.791 4.293-3.903 8.077-1.218 4.216-1.396 7.955-.976 11.64.417 3.683 1.99 7.465 1.99 7.465.837 1.984 2.09 4.111 2.905 5.154 1.196-1.535 3.947-6.118 4.804-12.109.475-3.326.495-6.241-.599-10.99m-4.221 21.92c-.539-1.003-1.374-2.915-1.456-5.864-.018-2.854 1.134-5.303 1.473-5.811.302.508 1.296 2.64 1.414 5.554.08 2.851-.874 5.096-1.431 6.121m3.905-13.863c-.042 1.811-.262 3.725-.539 4.864.098-1.968-.138-4.748-.599-6.914-.457-2.17-1.753-5.787-2.787-7.466-.954 1.597-2.134 4.731-2.749 7.444-.619 2.722-.639 6.015-.639 6.998-.164-.834-.575-3.796-.457-6.776.096-2.461.677-4.984.996-6.147 1.214-3.883 2.59-6.362 2.849-6.756.259.393 1.99 3.446 2.889 6.655.894 3.214 1.074 6.287 1.036 8.098"></path><path d="M18.088 33.339v5.614c.005-.005.013-.016.022-.023 1.984-1.953 5.205-1.953 7.191 0a4.954 4.954 0 0 1 0 7.082l-.027.025v.002l-.031.027a10.206 10.206 0 0 1-7.154 2.901c-2.6 0-5.197-.978-7.183-2.927a9.894 9.894 0 0 1-1.247-12.658 10.17 10.17 0 0 1 1.245-1.488 10.21 10.21 0 0 1 7.183-2.926V15.574C8.099 15.574 0 23.551 0 33.383c0 9.842 8.099 17.816 18.088 17.816 5.21 0 9.899-2.172 13.198-5.639V33.339H18.088z"></path></g></svg>
