<?xml version="1.0" encoding="utf-8"?>
<!-- Generator: Adobe Illustrator 19.2.0, SVG Export Plug-In . SVG Version: 6.00 Build 0)  -->
<svg version="1.1" id="Capa_1" xmlns="http://www.w3.org/2000/svg" xmlns:xlink="http://www.w3.org/1999/xlink" x="0px" y="0px"
	 viewBox="0 0 464.8 384.4" style="enable-background:new 0 0 464.8 384.4;" xml:space="preserve">
<style type="text/css">
	.st0{fill:#FFFFFF;}
	.st1{fill:#7759A6;}
	.st2{fill:none;}
	.st3{fill:#3CBFBD;}
</style>
<g>
	<path class="st0" d="M332.3,107.6H132.5c-1.7,0-3.2,1.4-3.2,3.2v136.4c0,1.7,1.4,3.2,3.2,3.2h76.1h47.5h76.1c1.7,0,3.2-1.4,3.2-3.2
		V110.7C335.4,109,334,107.6,332.3,107.6z"/>
	<path d="M332.3,102.6H132.5c-4.5,0-8.2,3.7-8.2,8.2v136.4c0,4.5,3.7,8.2,8.2,8.2h76.1V266h-30.1c-2.9,0-5.3,2.4-5.3,5.3v5.2
		c0,2.9,2.4,5.3,5.3,5.3h107.7c2.9,0,5.3-2.4,5.3-5.3v-5.2c0-2.9-2.4-5.3-5.3-5.3h-30.1v-10.7h76.1c4.5,0,8.2-3.7,8.2-8.2V110.7
		C340.4,106.2,336.8,102.6,332.3,102.6z M335.4,247.1c0,1.7-1.4,3.2-3.2,3.2h-76.1h-47.5h-76.1c-1.7,0-3.2-1.4-3.2-3.2V110.7
		c0-1.7,1.4-3.2,3.2-3.2h199.7c1.7,0,3.2,1.4,3.2,3.2L335.4,247.1L335.4,247.1z M286.6,271.3v5.2c0,0.2-0.1,0.3-0.3,0.3H178.5
		c-0.2,0-0.3-0.2-0.3-0.3v-5.2c0-0.2,0.2-0.3,0.3-0.3h30.1h47.5h30.1C286.4,271,286.6,271.1,286.6,271.3z M251.2,266h-37.5v-10.7
		h37.5V266z"/>
	<path class="st0" d="M208.6,271h-30.1c-0.2,0-0.3,0.1-0.3,0.3v5.2c0,0.2,0.2,0.3,0.3,0.3h107.7c0.2,0,0.3-0.2,0.3-0.3v-5.2
		c0-0.2-0.1-0.3-0.3-0.3h-30.1H208.6z"/>
	<rect x="213.6" y="255.3" class="st0" width="37.5" height="10.7"/>
	<g>
		<g>
			<path d="M249,204.9c-1.3-0.8-2.5-1.5-3.8-2.3c0.3-2.6,0.3-5.2,0-7.8c1.3-0.7,2.6-1.5,3.8-2.3c2.1-1.3,3-3.9,2-6.2l0,0l-2.7-6.6
				c-0.9-2.3-3.4-3.5-5.8-2.9c-1.4,0.4-2.9,0.7-4.3,1.1c-1.6-2-3.5-3.9-5.5-5.5c0.4-1.4,0.8-2.9,1.1-4.3c0.6-2.4-0.7-4.9-2.9-5.8
				l-6.6-2.7c-2.3-0.9-4.9-0.1-6.2,2c-0.8,1.3-1.5,2.5-2.3,3.8c-2.6-0.3-5.2-0.3-7.8,0c-0.7-1.3-1.5-2.6-2.3-3.8
				c-1.3-2.1-3.9-3-6.2-2l-6.6,2.7c-2.3,0.9-3.5,3.4-2.9,5.8c0.4,1.4,0.7,2.9,1.1,4.3c-2,1.6-3.9,3.5-5.5,5.5
				c-1.4-0.4-2.9-0.8-4.3-1.1c-2.4-0.6-4.9,0.7-5.8,2.9l-2.7,6.6c-0.9,2.3-0.1,4.9,2,6.2c1.3,0.8,2.5,1.5,3.8,2.3
				c-0.3,2.6-0.3,5.2,0,7.8c-1.3,0.7-2.6,1.5-3.8,2.3c-2.1,1.3-3,3.9-2,6.2l2.7,6.6c0.9,2.3,3.4,3.5,5.8,2.9
				c1.4-0.4,2.9-0.7,4.3-1.1c1.6,2,3.5,3.9,5.5,5.5c-0.4,1.4-0.8,2.9-1.1,4.3c-0.6,2.4,0.7,4.9,2.9,5.8l6.6,2.7
				c0.6,0.3,1.3,0.4,1.9,0.4c1.7,0,3.4-0.9,4.3-2.4c0.7-1.2,1.5-2.5,2.3-3.8c2.6,0.3,5.2,0.3,7.8,0c0.7,1.3,1.5,2.6,2.3,3.8
				c1.3,2.1,3.9,3,6.2,2l6.6-2.7c2.3-0.9,3.5-3.4,2.9-5.8c-0.4-1.4-0.7-2.9-1.1-4.3c2-1.6,3.9-3.5,5.5-5.5c1.4,0.4,2.9,0.8,4.3,1.1
				c2.4,0.6,4.9-0.7,5.8-2.9l2.7-6.6C251.9,208.8,251.1,206.2,249,204.9z"/>
		</g>
	</g>
	<path d="M288,142.5c-0.9-0.1-1.9-0.3-2.8-0.4c-0.5-1.6-1.1-3.1-1.9-4.6c0.6-0.8,1.2-1.5,1.7-2.3c1.2-1.7,1.1-4-0.4-5.5l-3.7-3.7
		c-1.5-1.5-3.8-1.6-5.5-0.4c-0.8,0.6-1.5,1.1-2.3,1.7c-1.5-0.8-3-1.4-4.6-1.9c-0.1-1-0.3-1.9-0.4-2.8c-0.3-2.1-2.1-3.6-4.2-3.6h-5.2
		c-2.1,0-3.9,1.5-4.2,3.6c-0.1,0.9-0.3,1.9-0.4,2.8c-1.6,0.5-3.1,1.1-4.6,1.9c-0.8-0.6-1.5-1.2-2.3-1.7c-1.7-1.2-4-1.1-5.5,0.4
		l-3.7,3.7c-1.5,1.5-1.6,3.8-0.4,5.5c0.6,0.8,1.1,1.5,1.7,2.3c-0.8,1.5-1.4,3-1.9,4.6c-1,0.1-1.9,0.3-2.8,0.4
		c-2.1,0.3-3.6,2.1-3.6,4.2v5.2c0,2.1,1.5,3.9,3.6,4.2c0.9,0.1,1.9,0.3,2.8,0.4c0.5,1.6,1.1,3.1,1.9,4.6c-0.6,0.8-1.2,1.5-1.7,2.3
		c-1.2,1.7-1.1,4,0.4,5.5l3.7,3.7c1.5,1.5,3.8,1.6,5.5,0.4c0.8-0.6,1.5-1.1,2.3-1.7c1.5,0.8,3,1.4,4.6,1.9c0.1,1,0.3,1.9,0.4,2.8
		c0.3,2.1,2.1,3.6,4.2,3.6h5.2c2.1,0,3.9-1.5,4.2-3.6c0.1-0.9,0.3-1.9,0.4-2.8c1.6-0.5,3.1-1.1,4.6-1.9c0.8,0.6,1.5,1.2,2.3,1.7
		c1.7,1.2,4,1.1,5.5-0.4l3.7-3.7c1.5-1.5,1.6-3.8,0.4-5.5c-0.6-0.8-1.1-1.5-1.7-2.3c0.8-1.5,1.4-3,1.9-4.6c1-0.1,1.9-0.3,2.8-0.4
		c2.1-0.3,3.6-2.1,3.6-4.2v-5.2C291.6,144.6,290.1,142.8,288,142.5z"/>
	<path class="st1" d="M286.6,151.2c-0.8,0.1-1.7,0.2-2.5,0.4c-1.7,0.2-3.1,1.4-3.5,3.1c-0.4,1.6-1.1,3.1-1.9,4.5
		c-0.8,1.5-0.7,3.3,0.3,4.7c0.5,0.7,1,1.4,1.6,2.1l-2.7,2.7c-0.7-0.5-1.4-1-2.1-1.6c-1.4-1-3.2-1.2-4.7-0.3
		c-1.4,0.8-2.9,1.4-4.5,1.9s-2.8,1.8-3.1,3.5c-0.1,0.9-0.2,1.7-0.4,2.5h-3.8c-0.1-0.8-0.2-1.7-0.4-2.5c-0.2-1.7-1.4-3.1-3.1-3.5
		c-1.6-0.4-3.1-1.1-4.5-1.9c-1.5-0.8-3.3-0.7-4.7,0.3c-0.7,0.5-1.4,1-2.1,1.6l-2.7-2.7c0.5-0.7,1-1.4,1.6-2.1c1-1.4,1.2-3.2,0.3-4.7
		c-0.8-1.4-1.4-2.9-1.9-4.5s-1.8-2.8-3.5-3.1c-0.9-0.1-1.7-0.2-2.5-0.4v-3.8c0.8-0.1,1.7-0.2,2.5-0.4c1.7-0.2,3.1-1.4,3.5-3.1
		c0.4-1.6,1.1-3.1,1.9-4.5c0.8-1.5,0.7-3.3-0.3-4.7c-0.5-0.7-1-1.4-1.6-2.1l2.7-2.7c0.7,0.5,1.4,1,2.1,1.6c1.4,1,3.2,1.2,4.7,0.3
		c1.4-0.8,2.9-1.4,4.5-1.9s2.8-1.8,3.1-3.5c0.1-0.9,0.2-1.7,0.4-2.5h3.8c0.1,0.8,0.2,1.7,0.4,2.5c0.2,1.7,1.4,3.1,3.1,3.5
		c1.6,0.4,3.1,1.1,4.5,1.9c1.5,0.8,3.3,0.7,4.7-0.3c0.7-0.5,1.4-1,2.1-1.6l2.7,2.7c-0.5,0.7-1,1.4-1.6,2.1c-1,1.4-1.2,3.2-0.3,4.7
		c0.8,1.4,1.4,2.9,1.9,4.5s1.8,2.8,3.5,3.1c0.9,0.1,1.7,0.2,2.5,0.4V151.2L286.6,151.2z"/>
	<path d="M261.3,138.5c-6,0-10.8,4.9-10.8,10.8c0,6,4.9,10.8,10.8,10.8c5.9,0,10.8-4.9,10.8-10.8
		C272.1,143.3,267.3,138.5,261.3,138.5z"/>
	<circle class="st0" cx="261.3" cy="149.3" r="6"/>
	<path class="st1" d="M243.4,215.4c-1.4-0.3-2.7-0.7-4.1-1.1c-2-0.5-4,0.2-5.2,1.7c-1.4,1.8-3.1,3.5-4.9,4.9
		c-1.6,1.2-2.3,3.3-1.7,5.2c0.4,1.4,0.7,2.8,1.1,4.1l-6.1,2.5c-0.7-1.2-1.4-2.4-2.2-3.7c-1-1.8-2.9-2.7-4.9-2.5
		c-2.3,0.3-4.6,0.3-6.9,0c-2-0.2-3.9,0.7-4.9,2.5c-0.7,1.2-1.4,2.5-2.2,3.7l-6.1-2.5c0.3-1.4,0.7-2.7,1.1-4.1c0.5-2-0.2-4-1.7-5.2
		c-1.8-1.4-3.5-3.1-4.9-4.9c-1.2-1.6-3.3-2.3-5.2-1.7c-1.4,0.4-2.8,0.7-4.1,1.1l-2.5-6.1c1.2-0.7,2.4-1.4,3.7-2.2
		c1.8-1,2.7-2.9,2.5-4.9c-0.3-2.3-0.3-4.6,0-6.9c0.2-2-0.7-3.9-2.5-4.9c-1.2-0.7-2.5-1.4-3.7-2.2l2.5-6.1c1.4,0.3,2.7,0.7,4.1,1.1
		c2,0.5,4-0.2,5.2-1.7c1.4-1.8,3.1-3.5,4.9-4.9c1.6-1.2,2.3-3.3,1.7-5.2c-0.4-1.4-0.7-2.8-1.1-4.1l6.1-2.5c0.7,1.2,1.4,2.4,2.2,3.7
		c1,1.8,3,2.7,4.9,2.5c2.3-0.3,4.6-0.3,6.9,0c2,0.2,3.9-0.7,4.9-2.5c0.7-1.2,1.4-2.5,2.2-3.7l6.1,2.5c-0.3,1.4-0.7,2.7-1.1,4.1
		c-0.5,2,0.2,4,1.7,5.2c1.8,1.4,3.5,3.1,4.9,4.9c1.2,1.6,3.3,2.3,5.2,1.7c1.4-0.4,2.8-0.7,4.1-1.1l2.5,6.1c-1.2,0.7-2.4,1.4-3.7,2.2
		c-1.8,1-2.7,2.9-2.5,4.9c0.3,2.3,0.3,4.6,0,6.9c-0.2,2,0.7,3.9,2.5,4.9c1.2,0.7,2.5,1.4,3.7,2.2L243.4,215.4z"/>
	<path d="M228.7,191.8L228.7,191.8c-3.8-9.3-14.5-13.7-23.8-9.9s-13.7,14.5-9.9,23.8c1.9,4.5,5.4,8,9.9,9.9c2.2,0.9,4.6,1.4,7,1.4
		s4.7-0.5,7-1.4C228.1,211.8,232.5,201.1,228.7,191.8z"/>
	<path class="st0" d="M216.8,210.7c-3.2,1.3-6.7,1.3-9.8,0c-3.2-1.3-5.6-3.8-7-7c-2.7-6.6,0.4-14.1,7-16.8c1.6-0.7,3.3-1,4.9-1
		c5,0,9.9,3,11.9,7.9C226.4,200.4,223.3,208,216.8,210.7z"/>
</g>
<g>
	<circle class="st2" cx="284.1" cy="243.6" r="2.3"/>
	<path class="st3" d="M370.8,176.3L356,191.2c-0.6,0.6-1.4,0.8-2.2,0.7l-13.6-2.3c-1.1-0.2-1.9-1-2.1-2.1l-2.3-13.6
		c-0.1-0.8,0.1-1.6,0.7-2.2l14.8-14.8c-2.1-0.5-4.2-0.8-6.3-0.8c-6.9,0-13.5,2.7-18.6,7.7c-7,7-9.4,17.4-6.2,27
		c0.3,0.9,0.1,1.9-0.6,2.5l-42.8,42.8c-4,4-4,10.6,0,14.6c2,2,4.6,3,7.3,3s5.4-1.1,7.3-3l42.8-42.8c0.7-0.7,1.7-0.9,2.6-0.6
		c9.6,3.2,20,0.8,27-6.3C370.4,194.7,373,185.4,370.8,176.3z M284.1,250.9c-4,0-7.3-3.3-7.3-7.3s3.3-7.3,7.3-7.3s7.3,3.3,7.3,7.3
		S288.2,250.9,284.1,250.9z"/>
	<path d="M375.6,175c-0.4-1.7-1.7-3.1-3.4-3.5c-1.7-0.5-3.5,0-4.8,1.3l-14,14l-10.6-1.8l-1.8-10.6l14-14c1.3-1.3,1.7-3.1,1.3-4.8
		c-0.5-1.7-1.8-3-3.6-3.5c-10.8-2.7-21.9,0.4-29.8,8.3c-8,8-10.9,19.6-7.9,30.6l-41.8,41.8c-6,6-6,15.7,0,21.7
		c2.9,2.9,6.8,4.5,10.8,4.5c4.1,0,8-1.6,10.8-4.5l41.7-41.7c11,3.1,22.6,0.1,30.6-7.9C375.2,196.9,378.3,185.8,375.6,175z
		 M336.8,207.5c-0.9-0.3-1.9-0.1-2.6,0.6l-42.8,42.8c-2,2-4.6,3-7.3,3s-5.4-1.1-7.3-3c-4-4-4-10.6,0-14.6l42.8-42.8
		c0.7-0.7,0.9-1.7,0.6-2.5c-3.2-9.6-0.8-20,6.2-27c5-5,11.7-7.7,18.6-7.7c2.1,0,4.2,0.2,6.3,0.8l-14.8,14.8
		c-0.6,0.6-0.8,1.4-0.7,2.2l2.3,13.6c0.2,1.1,1,1.9,2.1,2.1l13.6,2.3c0.8,0.1,1.6-0.1,2.2-0.7l14.8-14.9c2.2,9-0.4,18.4-7,24.9
		C356.8,208.3,346.4,210.7,336.8,207.5z"/>
	<path d="M284.1,236.3c-4,0-7.3,3.3-7.3,7.3s3.3,7.3,7.3,7.3s7.3-3.3,7.3-7.3S288.2,236.3,284.1,236.3z M284.1,245.9
		c-1.3,0-2.3-1-2.3-2.3s1-2.3,2.3-2.3s2.3,1,2.3,2.3S285.4,245.9,284.1,245.9z"/>
</g>
</svg>
